# xmcd
#
# Track frame offsets:
#   150
#   13236
#   28763
#   42390
#   56066
#   65518
#   78006
#   88870
#   113858
#   129773
#   145075
#
# Disc length: 2157 seconds
#
# Revision: 1
# Processed by: cddbd v1.5.1PL2 Copyright (c) Steve Scherf et al.
# Submitted via: freedbtool 1.11
#
DISCID=90086b0b
DTITLE=Stevie Ray Vaughan - Doubled
DYEAR=1900
DGENRE=Blues
TTITLE0=You can have my wife
TTITLE1=Rude mood
TTITLE2=Pride and Joy
TTITLE3=Oh yeah
TTITLE4=Love struck baby
TTITLE5=Ti-ni-nee-nu
TTITLE6=Gonna miss me
TTITLE7=I Wonder why
TTITLE8=I'm cryin'
TTITLE9=Sugar coated love
TTITLE10=Natural born lover
EXTD=
EXTT0=
EXTT1=
EXTT2=
EXTT3=
EXTT4=
EXTT5=
EXTT6=
EXTT7=
EXTT8=
EXTT9=
EXTT10=
PLAYORDER=
